<svg xmlns="http://www.w3.org/2000/svg" version="1.1" xmlns:xlink="http://www.w3.org/1999/xlink" xmlns:svgjs="http://svgjs.com/svgjs" width="1440" height="560" preserveAspectRatio="none" viewBox="0 0 1440 560"><g mask="url(&quot;#SvgjsMask1067&quot;)" fill="none"><rect width="1440" height="560" x="0" y="0" fill="rgba(8, 6, 33, 0.92)"></rect><path d="M0,581.484C106.499,571.566,194.444,493.154,265.621,413.315C325.788,345.826,320.647,245.017,368.406,168.245C426.694,74.547,560.773,27.002,574.085,-82.541C587.443,-192.46,508.032,-293.706,434.618,-376.598C361.719,-458.909,270.007,-533.379,161.142,-548.799C56.963,-563.555,-44.51,-512.126,-134.237,-457.17C-208.977,-411.394,-248.271,-331.075,-304.333,-263.706C-359.036,-197.97,-430.862,-146.611,-459.678,-66.092C-492.264,24.962,-504.489,125.056,-476.599,217.656C-446.673,317.018,-381.924,402.971,-299.44,465.938C-212.642,532.198,-108.728,591.61,0,581.484" fill="rgba(6, 4, 24, 0.92)"></path><path d="M1440 1050.5529999999999C1539.402 1076.925 1652.71 1081.0320000000002 1741.517 1029.17 1831.266 976.758 1881.025 874.672 1911.383 775.273 1939.431 683.439 1919.492 588.067 1905.24 493.109 1891.076 398.743 1883.868 301.074 1828.541 223.32799999999997 1770.324 141.52100000000002 1689.248 63.65699999999998 1589.795 49.846000000000004 1492.62 36.351 1413.17 120.76999999999998 1320.426 152.767 1233.35 182.808 1134.366 175.651 1061.566 232.08499999999998 981.004 294.536 892.254 379.919 895.991 481.783 899.788 585.284 1014.723 643.867 1079.635 724.573 1127.1779999999999 783.683 1170.067 841.5989999999999 1226.323 892.4870000000001 1293.384 953.149 1352.597 1027.365 1440 1050.5529999999999" fill="rgba(10, 8, 42, 0.92)"></path></g><defs><mask id="SvgjsMask1067"><rect width="1440" height="560" fill="#ffffff"></rect></mask></defs></svg>